<svg xmlns="http://www.w3.org/2000/svg" width="606" height="106" viewBox="0 0 606 106"><!-- railroad --><style>.railroad rect{fill:none;stroke:currentColor;stroke-width:1} .railroad text{font-family:monospace;font-size:12px;fill:currentColor} .railroad path{stroke:currentColor;stroke-width:1;fill:none}</style><g class="railroad"><rect x="10" y="42" width="88" height="22" rx="11" ry="11"/><text x="54" y="57" text-anchor="middle">SELECT</text><path d="M98 53 h10"/><path d="M108 53 L118 53"/><path d="M118 53 L128 53"/><a href="identifier.html"><rect x="128" y="42" width="120" height="22"/><text x="188" y="57" text-anchor="middle">identifier</text></a><path d="M248 53 L258 53"/><path d="M118 53 Q128 53 128 85 L128 85"/><a href="expression.html"><rect x="128" y="74" width="120" height="22"/><text x="188" y="89" text-anchor="middle">expression</text></a><path d="M248 85 L248 85 Q258 85 258 53"/><path d="M258 53 L268 53"/><path d="M258 53 Q268 53 268 117 L212 117"/><rect x="164" y="106" width="48" height="22" rx="11" ry="11"/><text x="188" y="121" text-anchor="middle">,</text><path d="M164 117 L108 117 Q108 53 118 53"/><path d="M268 53 h10"/><path d="M278 53 L288 53"/><a href="FromClause.html"><rect x="288" y="42" width="120" height="22"/><text x="348" y="57" text-anchor="middle">FromClause</text></a><path d="M408 53 L418 53"/><path d="M278 53 Q288 53 288 21 L408 21 Q418 21 418 53"/><path d="M418 53 h10"/><path d="M428 53 L438 53"/><path d="M438 53 L448 53"/><rect x="448" y="42" width="128" height="22"/><text x="512" y="57" text-anchor="middle">WhereClause</text><path d="M576 53 L586 53"/><path d="M576 53 Q586 53 586 74 L438 74 Q438 53 448 53"/><path d="M586 53 L596 53"/><path d="M428 53 Q438 53 438 21 L586 21 Q596 21 596 53"/></g></svg>